<svg version="1.1" id="Layer_1" xmlns="http://www.w3.org/2000/svg" xmlns:xlink="http://www.w3.org/1999/xlink" x="0px" y="0px"
	 width="100%" viewBox="0 0 416 384" enable-background="new 0 0 416 384" xml:space="preserve">
<path fill="#000000" opacity="1.000000" stroke="none" 
	d="
M153.735382,58.623375 
	C212.321594,32.097057 280.280762,48.150253 321.742828,91.131088 
	C344.031952,114.236656 357.453491,141.835632 361.351318,173.865463 
	C361.780365,177.390991 363.478668,180.984116 360.262634,184.244675 
	C355.148224,189.429932 349.122681,192.715454 341.835052,193.235275 
	C329.401398,194.122162 319.283112,188.593155 309.852844,181.304337 
	C304.613373,177.254669 301.144989,172.584839 299.462006,165.641006 
	C291.023499,130.824158 260.129211,103.589539 225.383362,99.412247 
	C180.139053,93.972801 138.566101,123.457794 128.405045,168.245377 
	C126.966881,174.584503 126.011147,181.021713 126.341759,187.544586 
	C126.505287,190.770874 125.614388,193.260071 123.253807,195.549896 
	C116.041687,202.545822 110.942543,211.273590 104.476265,218.890305 
	C97.965157,226.559799 90.312080,232.308716 80.215096,234.633423 
	C75.390465,235.744217 73.162117,234.400940 71.918938,229.727127 
	C63.932449,199.701416 64.739960,170.003510 75.938248,140.978104 
	C90.533592,103.147682 116.517311,75.759811 153.735382,58.623375 
M73.778023,179.142334 
	C72.390984,195.788391 73.675980,212.127182 78.657242,228.093384 
	C87.267181,226.487839 94.682747,221.256622 101.619568,212.143570 
	C106.662148,205.518997 111.379799,198.636566 117.236183,192.667068 
	C119.090347,190.777100 119.785736,188.578506 119.792458,185.898819 
	C119.810455,178.719543 120.960960,171.659668 122.648170,164.690918 
	C133.925064,118.113571 177.564255,87.481064 225.082153,92.778374 
	C263.774902,97.091843 296.636017,126.511528 306.280609,165.492798 
	C306.959503,168.236633 307.437805,170.977661 309.759064,173.030243 
	C316.320038,178.831818 323.378479,183.737015 331.984650,185.999451 
	C339.308594,187.924789 346.176514,187.022736 352.433533,182.560928 
	C354.588684,181.024109 356.049438,179.229233 355.456451,176.274384 
	C354.280487,170.414429 353.589508,164.439133 352.117706,158.659302 
	C334.096344,87.888359 263.726044,42.123028 191.567322,54.143120 
	C128.495483,64.649529 79.725517,116.113312 73.778023,179.142334 
z"/>
<path fill="#000000" opacity="1.000000" stroke="none" 
	d="
M91.265076,270.838074 
	C85.731911,264.120178 82.038902,256.751251 79.150246,249.168655 
	C80.280449,247.357071 81.883003,247.189346 83.262482,246.867340 
	C96.062813,243.879532 105.711021,236.346710 113.520180,226.108170 
	C118.166313,220.016602 122.764191,213.887207 127.479256,207.849411 
	C155.097382,172.483383 198.901596,168.165222 235.742386,188.498123 
	C257.064240,200.265900 274.610809,216.466812 288.733337,236.301971 
	C295.945068,246.430862 305.087280,253.720001 317.269104,256.885529 
	C324.669403,258.808533 332.053070,258.741486 339.465027,256.904327 
	C341.020599,256.518768 342.560974,255.580399 344.321686,256.222382 
	C345.417572,258.106781 344.002014,259.438660 343.302887,260.783569 
	C337.652832,271.652985 330.323395,281.299438 321.829651,290.101685 
	C319.847595,292.155701 317.561798,292.984589 314.757446,293.237091 
	C298.200592,294.727814 283.465698,290.320221 270.442749,280.002441 
	C256.176270,268.699402 243.277695,255.923782 230.480469,243.037842 
	C222.822708,235.326965 214.766754,228.116608 205.131989,222.919189 
	C180.219498,209.480347 154.155655,213.133774 131.758240,232.993546 
	C124.846016,239.122620 119.374718,246.429367 113.675674,253.606323 
	C107.736374,261.085815 100.711006,267.407928 91.265076,270.838074 
M249.614777,252.883713 
	C255.338852,258.221100 260.922211,263.720032 266.820038,268.857910 
	C275.649078,276.549377 284.871094,283.818390 296.756195,286.109283 
	C303.276001,287.366028 310.775513,289.047272 316.309082,285.590363 
	C323.816101,280.900574 328.309204,272.714142 333.886993,264.378510 
	C325.820923,264.529236 319.049255,264.354279 312.504913,262.191956 
	C299.249298,257.812256 290.000549,248.671448 281.741302,237.806259 
	C263.667023,214.029251 242.099976,194.359634 212.589722,186.076035 
	C184.601074,178.219543 159.585999,184.093811 138.707016,205.080215 
	C131.858353,211.964096 126.311455,219.876419 120.529297,227.602829 
	C112.603920,238.193085 103.334007,247.046402 90.586884,251.606689 
	C89.670876,251.934402 88.724022,252.408508 88.490814,253.854904 
	C89.619041,256.881195 90.859367,260.086029 93.890083,262.591400 
	C100.251938,258.892120 105.371170,254.019363 109.724411,248.271042 
	C114.348503,242.165085 118.783600,235.884232 124.532684,230.744705 
	C137.965317,218.736206 152.803497,209.735962 171.433151,208.649033 
	C191.820221,207.459549 208.886658,215.386795 223.880920,228.191452 
	C232.727173,235.745865 240.726929,244.291519 249.614777,252.883713 
z"/>
<path fill="#000000" opacity="1.000000" stroke="none" 
	d="
M143.897812,320.235413 
	C127.811661,311.345734 114.034874,300.202728 102.142410,286.656860 
	C99.045639,283.129578 98.908859,280.799896 102.903381,277.833527 
	C112.438904,270.752380 120.065483,261.582092 128.682281,253.487656 
	C154.332047,229.392838 185.152649,226.815903 214.561371,246.081818 
	C224.559921,252.632004 233.406525,260.322449 240.471970,270.027008 
	C254.095078,288.738708 272.436493,300.318542 294.799103,305.808838 
	C296.645782,306.262207 298.819794,306.187897 300.779480,308.817139 
	C288.420837,318.948303 274.567871,326.122620 259.437134,330.658356 
	C219.729782,342.561371 181.195831,339.948975 143.897812,320.235413 
M156.506104,243.031204 
	C135.595566,250.497238 123.864380,269.089996 107.466599,282.776917 
	C136.041367,314.392426 171.020432,331.086823 213.027237,331.378510 
	C239.035751,331.559082 263.796631,325.444031 286.887756,310.667175 
	C284.473083,309.634857 283.146729,308.996368 281.771515,308.490631 
	C262.826874,301.523376 247.026001,290.337402 235.334793,273.716766 
	C226.360123,260.958099 214.274857,251.991455 200.395203,245.428360 
	C186.468491,238.843033 171.995255,237.607376 156.506104,243.031204 
z"/>
<path fill="#000000" opacity="1.000000" stroke="none" 
	d="
M339.831909,205.914200 
	C347.702454,205.749741 353.885284,202.102829 360.365692,198.142914 
	C362.496765,204.215744 360.346222,209.516220 359.997559,214.814865 
	C359.835785,217.273483 358.655396,219.668945 358.521790,222.124847 
	C357.930511,232.996140 351.276245,237.856400 341.632721,240.786087 
	C325.064575,245.819489 310.800964,242.656509 298.513855,230.434814 
	C292.806061,224.757401 287.944977,218.399017 283.846863,211.530167 
	C274.300446,195.529434 260.834290,183.634323 245.299438,173.800293 
	C243.785461,172.841904 241.953033,172.207657 241.097977,169.629242 
	C246.659363,164.981140 253.489029,163.341949 260.563782,162.805634 
	C274.838806,161.723495 286.474915,167.876648 296.621613,177.141205 
	C302.018829,182.069214 306.856750,187.614380 311.891724,192.933456 
	C319.376282,200.840347 327.920197,206.452576 339.831909,205.914200 
M315.643158,204.957535 
	C309.171722,200.141129 304.222015,193.811752 298.795319,187.961761 
	C292.503723,181.179398 285.555786,175.280762 276.882629,171.780792 
	C269.472076,168.790329 261.929108,168.058899 254.286911,170.712769 
	C254.412659,172.435455 255.434967,172.834427 256.218994,173.370941 
	C269.601044,182.528381 280.583099,193.945374 289.049408,207.808365 
	C292.697754,213.782242 296.925934,219.360596 301.655701,224.538956 
	C313.712616,237.739548 331.218597,240.547195 346.588409,231.753143 
	C347.892670,231.006897 349.369843,230.332489 349.895111,228.841217 
	C352.075043,222.652344 353.779694,216.361618 353.896454,209.216736 
	C340.212982,214.422653 327.824524,213.338364 315.643158,204.957535 
z"/>
</svg>